<?xml version="1.0" standalone="no"?>
<!DOCTYPE svg PUBLIC "-//W3C//DTD SVG 20010904//EN"
 "http://www.w3.org/TR/2001/REC-SVG-20010904/DTD/svg10.dtd">
<svg version="1.0" xmlns="http://www.w3.org/2000/svg"
 width="363.000000pt" height="363.000000pt" viewBox="0 0 363.000000 363.000000"
 preserveAspectRatio="xMidYMid meet">
<metadata>
Created by potrace 1.14, written by Peter Selinger 2001-2017
</metadata>
<g transform="translate(0.000000,363.000000) scale(0.100000,-0.100000)"
fill="#000000" stroke="none">
<path d="M1728 3605 c-2 -1 -38 -5 -80 -8 -183 -15 -419 -82 -603 -171 -92
-45 -288 -164 -305 -185 -3 -3 -32 -28 -65 -56 -553 -462 -766 -1218 -540
-1910 234 -719 918 -1218 1670 -1219 92 0 243 9 281 18 12 2 39 7 60 10 122
20 290 75 431 141 629 297 1027 934 1017 1630 -1 105 -13 229 -30 306 -2 13
-9 44 -14 69 -17 88 -81 267 -134 375 -181 369 -477 661 -847 834 -163 77
-381 138 -552 156 -56 6 -284 14 -289 10z m297 -159 c545 -76 1011 -408 1249
-891 158 -319 204 -626 150 -1000 -19 -134 -89 -340 -166 -485 -42 -80 -127
-212 -147 -230 -4 -3 -19 -23 -36 -45 -47 -63 -199 -208 -286 -272 -298 -217
-641 -326 -1004 -317 -77 1 -149 5 -160 7 -11 3 -41 8 -67 11 -83 11 -231 53
-339 95 -476 186 -842 600 -974 1103 -61 233 -67 494 -18 738 137 681 728
1218 1413 1286 36 4 66 8 68 9 6 5 268 -3 317 -9z"/>
<path d="M2262 2554 c-139 -30 -262 -96 -362 -194 -160 -156 -234 -341 -225
-560 4 -97 8 -120 36 -204 64 -189 203 -347 379 -429 123 -57 155 -66 280 -74
290 -18 562 137 702 402 96 182 102 440 15 637 -88 198 -275 357 -487 413 -84
23 -255 27 -338 9z m297 -151 c364 -94 550 -508 378 -840 -77 -150 -203 -253
-367 -303 -92 -28 -261 -22 -351 12 -98 36 -156 74 -229 147 -227 228 -224
596 6 827 78 79 195 144 289 163 72 13 209 11 274 -6z"/>
<path d="M2078 2114 c-27 -14 -39 -42 -32 -77 2 -11 38 -123 80 -249 69 -208
78 -230 105 -243 16 -9 30 -16 31 -17 13 -7 57 35 99 92 28 39 52 70 53 70 2
0 24 -32 50 -70 26 -40 58 -75 71 -80 27 -10 64 -1 82 21 15 19 163 469 163
495 0 57 -76 89 -119 50 -10 -9 -42 -87 -71 -173 -42 -123 -55 -153 -64 -141
-6 9 -26 36 -43 62 -28 39 -38 46 -66 46 -40 0 -55 -11 -97 -74 l-34 -50 -48
145 c-56 169 -64 186 -92 196 -35 11 -41 11 -68 -3z"/>
<path d="M1053 2157 c-288 -144 -532 -270 -543 -279 -22 -20 -26 -64 -7 -89
18 -24 1071 -549 1101 -549 32 0 66 36 66 69 0 14 -13 60 -29 101 -17 41 -59
153 -94 248 l-65 173 40 107 c22 59 44 116 49 127 28 63 99 269 99 289 0 31
-36 66 -68 66 -15 0 -256 -115 -549 -263z m378 -44 c-16 -43 -45 -121 -65
-173 -20 -52 -36 -102 -36 -110 0 -8 29 -91 64 -185 35 -93 63 -171 61 -173
-1 -2 -165 78 -364 177 l-361 181 112 56 c454 228 604 303 610 303 4 1 -5 -34
-21 -76z"/>
</g>
</svg>
