<svg id="visual" viewBox="0 0 960 540" width="960" height="540" xmlns="http://www.w3.org/2000/svg" xmlns:xlink="http://www.w3.org/1999/xlink" version="1.1"><path d="M0 33L87 33L175 33L262 39L349 39L436 33L524 44L611 39L698 33L785 39L873 44L960 28L960 0L873 0L785 0L698 0L611 0L524 0L436 0L349 0L262 0L175 0L87 0L0 0Z" fill="#08d9da"></path><path d="M0 82L87 71L175 98L262 104L349 109L436 77L524 82L611 87L698 98L785 109L873 87L960 82L960 26L873 42L785 37L698 31L611 37L524 42L436 31L349 37L262 37L175 31L87 31L0 31Z" fill="#00befa"></path><path d="M0 195L87 195L175 255L262 266L349 244L436 212L524 212L611 217L698 190L785 276L873 228L960 228L960 80L873 85L785 107L698 96L611 85L524 80L436 75L349 107L262 102L175 96L87 69L0 80Z" fill="#3c96ff"></path><path d="M0 228L87 222L175 287L262 298L349 271L436 249L524 249L611 244L698 217L785 298L873 249L960 249L960 226L873 226L785 274L698 188L611 215L524 210L436 210L349 242L262 264L175 253L87 193L0 193Z" fill="#b944e1"></path><path d="M0 276L87 271L175 330L262 336L349 320L436 298L524 298L611 276L698 276L785 330L873 282L960 282L960 247L873 247L785 296L698 215L611 242L524 247L436 247L349 269L262 296L175 285L87 220L0 226Z" fill="#cc1ccf"></path><path d="M0 320L87 314L175 379L262 363L349 352L436 330L524 341L611 303L698 309L785 368L873 320L960 314L960 280L873 280L785 328L698 274L611 274L524 296L436 296L349 318L262 334L175 328L87 269L0 274Z" fill="#b944e1"></path><path d="M0 352L87 347L175 401L262 395L349 379L436 368L524 379L611 341L698 336L785 390L873 347L960 352L960 312L873 318L785 366L698 307L611 301L524 339L436 328L349 350L262 361L175 377L87 312L0 318Z" fill="#3c96ff"></path><path d="M0 438L87 433L175 460L262 460L349 444L436 438L524 460L611 422L698 417L785 444L873 422L960 433L960 350L873 345L785 388L698 334L611 339L524 377L436 366L349 377L262 393L175 399L87 345L0 350Z" fill="#00befa"></path><path d="M0 541L87 541L175 541L262 541L349 541L436 541L524 541L611 541L698 541L785 541L873 541L960 541L960 431L873 420L785 442L698 415L611 420L524 458L436 436L349 442L262 458L175 458L87 431L0 436Z" fill="#08d9da"></path></svg>