<svg xmlns="http://www.w3.org/2000/svg" version="1.1" xmlns:xlink="http://www.w3.org/1999/xlink" xmlns:svgjs="http://svgjs.dev/svgjs" viewBox="0 0 800 400"><path d="M28.143712997436523,302.9940185546875C47.10578886667888,315.56886800130206,141.1177651087443,397.4051920572917,141.91616821289062,378.443115234375C142.71457131703696,359.4810384114583,13.772454579671223,188.82235717773438,32.93413162231445,189.2215576171875C52.09580866495769,189.62075805664062,251.89621035257974,405.38921610514325,256.88623046875,380.83831787109375C261.87625058492023,356.28741963704425,32.73453267415364,43.313374837239586,62.87425231933594,41.916168212890625C93.01397196451823,40.518961588541664,399.60079701741535,374.650686899821,437.72454833984375,372.455078125C475.84829966227215,370.259469350179,269.06186930338544,29.740516662597656,291.61676025390625,28.742515563964844C314.17165120442706,27.74451446533203,547.5049896240234,352.295415242513,573.0538940429688,366.4670715332031C598.6027984619141,380.63872782389325,425.5489095052083,113.5728530883789,444.9101867675781,113.77245330810547C464.27146402994794,113.97205352783203,661.2774505615234,355.8882255554199,689.2215576171875,367.6646728515625C717.1656646728516,379.4411201477051,598.602773030599,198.2035929361979,612.5748291015625,184.43113708496094C626.546885172526,170.65868123372397,746.307383219401,268.26347096761066,773.0538940429688,285.0299377441406" fill="none" stroke-width="25" stroke="url(&quot;#SvgjsLinearGradient1000&quot;)" stroke-linecap="round"></path><defs><linearGradient id="SvgjsLinearGradient1000"><stop stop-color="hsl(180, 93%, 44%)" offset="0"></stop><stop stop-color="hsl(180, 69%, 60%)" offset="1"></stop></linearGradient></defs></svg>