<svg id="visual" viewBox="0 0 960 540" width="960" height="540" xmlns="http://www.w3.org/2000/svg" xmlns:xlink="http://www.w3.org/1999/xlink" version="1.1"><path d="M0 310L74 318L148 323L222 333L295 324L369 351L443 310L517 323L591 345L665 318L738 352L812 328L886 315L960 329L960 541L886 541L812 541L738 541L665 541L591 541L517 541L443 541L369 541L295 541L222 541L148 541L74 541L0 541Z" fill="#cc1ccf"></path><path d="M0 359L74 357L148 371L222 369L295 388L369 391L443 392L517 387L591 350L665 363L738 358L812 394L886 352L960 380L960 541L886 541L812 541L738 541L665 541L591 541L517 541L443 541L369 541L295 541L222 541L148 541L74 541L0 541Z" fill="#737dff"></path><path d="M0 395L74 396L148 421L222 409L295 416L369 432L443 414L517 393L591 403L665 401L738 393L812 406L886 414L960 392L960 541L886 541L812 541L738 541L665 541L591 541L517 541L443 541L369 541L295 541L222 541L148 541L74 541L0 541Z" fill="#00a8ff"></path><path d="M0 443L74 443L148 449L222 454L295 436L369 436L443 458L517 466L591 457L665 471L738 467L812 462L886 439L960 459L960 541L886 541L812 541L738 541L665 541L591 541L517 541L443 541L369 541L295 541L222 541L148 541L74 541L0 541Z" fill="#00c4f5"></path><path d="M0 511L74 508L148 500L222 481L295 503L369 477L443 479L517 480L591 490L665 495L738 491L812 476L886 507L960 476L960 541L886 541L812 541L738 541L665 541L591 541L517 541L443 541L369 541L295 541L222 541L148 541L74 541L0 541Z" fill="#08d9da"></path></svg>