<svg id="visual" viewBox="0 0 960 540" width="960" height="540" xmlns="http://www.w3.org/2000/svg" xmlns:xlink="http://www.w3.org/1999/xlink" version="1.1"><path d="M0 167L74 180L148 187L222 166L295 187L369 195L443 202L517 197L591 157L665 195L738 195L812 202L886 157L960 172L960 541L886 541L812 541L738 541L665 541L591 541L517 541L443 541L369 541L295 541L222 541L148 541L74 541L0 541Z" fill="#08d9da"></path><path d="M0 234L74 246L148 225L222 230L295 242L369 254L443 225L517 227L591 237L665 254L738 270L812 244L886 264L960 267L960 541L886 541L812 541L738 541L665 541L591 541L517 541L443 541L369 541L295 541L222 541L148 541L74 541L0 541Z" fill="#00c4f5"></path><path d="M0 315L74 347L148 347L222 316L295 308L369 328L443 313L517 304L591 330L665 338L738 351L812 338L886 315L960 340L960 541L886 541L812 541L738 541L665 541L591 541L517 541L443 541L369 541L295 541L222 541L148 541L74 541L0 541Z" fill="#00a8ff"></path><path d="M0 403L74 399L148 367L222 410L295 422L369 371L443 375L517 368L591 370L665 412L738 407L812 419L886 401L960 405L960 541L886 541L812 541L738 541L665 541L591 541L517 541L443 541L369 541L295 541L222 541L148 541L74 541L0 541Z" fill="#737dff"></path><path d="M0 466L74 470L148 494L222 443L295 474L369 475L443 495L517 464L591 467L665 441L738 491L812 482L886 459L960 490L960 541L886 541L812 541L738 541L665 541L591 541L517 541L443 541L369 541L295 541L222 541L148 541L74 541L0 541Z" fill="#cc1ccf"></path></svg>