<svg id="visual" viewBox="0 0 960 540" width="960" height="540" xmlns="http://www.w3.org/2000/svg" xmlns:xlink="http://www.w3.org/1999/xlink" version="1.1"><path d="M0 337L87 350L175 417L262 386L349 359L436 385L524 410L611 390L698 404L785 371L873 381L960 335L960 0L873 0L785 0L698 0L611 0L524 0L436 0L349 0L262 0L175 0L87 0L0 0Z" fill="#cc1ccf"></path><path d="M0 264L87 307L175 328L262 285L349 315L436 287L524 329L611 261L698 263L785 338L873 268L960 278L960 0L873 0L785 0L698 0L611 0L524 0L436 0L349 0L262 0L175 0L87 0L0 0Z" fill="#737dff"></path><path d="M0 250L87 216L175 240L262 233L349 229L436 204L524 264L611 197L698 208L785 201L873 214L960 261L960 0L873 0L785 0L698 0L611 0L524 0L436 0L349 0L262 0L175 0L87 0L0 0Z" fill="#00a8ff"></path><path d="M0 141L87 149L175 144L262 170L349 161L436 175L524 127L611 188L698 155L785 171L873 149L960 173L960 0L873 0L785 0L698 0L611 0L524 0L436 0L349 0L262 0L175 0L87 0L0 0Z" fill="#00c4f5"></path><path d="M0 60L87 86L175 98L262 95L349 112L436 89L524 87L611 79L698 105L785 58L873 58L960 108L960 0L873 0L785 0L698 0L611 0L524 0L436 0L349 0L262 0L175 0L87 0L0 0Z" fill="#08d9da"></path></svg>