<?xml version="1.0" standalone="no"?>
<!DOCTYPE svg PUBLIC "-//W3C//DTD SVG 20010904//EN"
 "http://www.w3.org/TR/2001/REC-SVG-20010904/DTD/svg10.dtd">
<svg version="1.0" xmlns="http://www.w3.org/2000/svg"
 width="383.000000pt" height="383.000000pt" viewBox="0 0 383.000000 383.000000"
 preserveAspectRatio="xMidYMid meet">
<metadata>
Created by potrace 1.14, written by Peter Selinger 2001-2017
</metadata>
<g transform="translate(0.000000,383.000000) scale(0.100000,-0.100000)"
fill="#000000" stroke="none">
<path d="M214 3080 c96 -140 106 -152 123 -146 7 3 13 -1 13 -9 0 -8 20 -28
44 -45 l45 -30 35 31 c20 17 36 34 36 38 0 4 -33 7 -74 6 -41 -1 -73 2 -71 5
2 4 27 6 55 5 63 -2 69 -9 -135 146 l-150 114 79 -115z"/>
<path d="M950 2953 c-76 -24 -101 -27 -241 -27 l-157 -1 -115 -110 c-114 -108
-116 -111 -146 -195 -43 -120 -181 -520 -191 -552 -7 -24 -2 -33 61 -92 39
-36 74 -66 78 -66 5 0 55 14 112 31 106 31 157 33 259 10 30 -7 45 -3 97 26
l62 34 163 -111 c160 -109 162 -111 222 -203 l61 -92 70 -18 c39 -9 79 -19 90
-21 59 -12 250 -58 257 -62 7 -5 4 56 -7 146 -2 19 -7 55 -9 80 -3 25 -8 71
-11 104 l-7 58 29 -17 c17 -10 30 -22 30 -29 0 -23 14 -234 19 -306 7 -88 0
-80 184 -210 66 -47 155 -111 197 -142 50 -37 80 -53 84 -45 3 7 27 91 55 187
l49 175 5 -66 5 -67 98 28 c54 15 99 29 101 31 6 7 106 383 106 398 0 7 -22
55 -49 105 -26 50 -95 181 -151 291 -204 397 -222 430 -248 452 -69 58 -251
173 -282 178 -47 8 -497 82 -535 88 -16 3 -59 10 -95 16 -135 22 -161 21 -250
-6z m-171 -69 c6 -5 5 -133 -1 -140 -5 -5 -266 73 -278 83 -3 3 11 19 31 37
l35 33 105 -5 c57 -2 106 -6 108 -8z m-263 -287 c4 -4 -86 -73 -100 -79 -6 -2
-11 16 -12 39 -1 38 1 42 25 45 27 4 82 0 87 -5z m-300 -577 c0 -68 -5 -67
-50 13 l-27 47 38 0 38 0 1 -60z"/>
<path d="M25 2785 c0 -118 2 -135 16 -135 9 0 51 -27 94 -60 43 -33 81 -60 85
-60 6 0 50 102 50 115 0 2 -28 5 -62 7 l-61 3 -42 97 c-22 54 -47 113 -55 133
-7 19 -16 35 -19 35 -3 0 -6 -61 -6 -135z"/>
<path d="M2178 2623 c16 -27 50 -88 77 -138 26 -49 60 -112 75 -140 15 -27 44
-81 65 -120 21 -38 45 -83 55 -100 10 -16 41 -75 70 -129 29 -55 60 -111 68
-125 13 -24 10 -40 -42 -219 -31 -106 -56 -199 -56 -206 0 -9 14 -12 48 -10
26 1 108 5 182 8 74 4 182 9 240 12 l106 6 64 -57 c72 -64 119 -107 198 -180
l53 -49 95 95 c70 69 94 99 91 114 -3 11 -31 103 -64 205 l-59 185 -90 125
c-50 69 -141 216 -204 327 l-113 202 -111 42 c-61 23 -133 50 -161 60 -54 20
-565 137 -602 139 -8 0 -1 -19 15 -47z"/>
<path d="M3480 2432 c-37 -139 -44 -183 -45 -260 l-1 -93 95 -29 c53 -17 101
-30 109 -30 7 0 29 12 47 27 l35 28 -95 95 -95 95 -2 167 -3 166 -45 -166z"/>
<path d="M3706 1997 l-28 -12 35 -26 36 -25 -44 -29 c-25 -17 -45 -33 -45 -36
0 -3 13 -15 29 -27 l29 -21 42 50 42 50 -17 45 c-18 47 -30 52 -79 31z"/>
<path d="M3389 1904 c6 -11 28 -38 48 -62 l38 -43 88 3 89 3 -128 55 c-71 30
-132 57 -137 59 -5 2 -4 -5 2 -15z"/>
<path d="M1324 1488 c18 -46 56 -137 83 -203 27 -66 56 -135 63 -153 15 -39
31 -48 91 -51 l46 -2 82 141 c45 77 79 145 76 149 -13 22 -156 123 -186 132
-19 5 -83 21 -144 35 -60 14 -118 27 -127 30 -13 4 -11 -10 16 -78z"/>
<path d="M2876 1393 c-1 -1 -73 -3 -160 -4 l-159 -3 139 -133 139 -134 45 5
c25 3 56 8 70 10 41 8 142 25 184 32 21 3 46 7 55 9 9 1 36 6 61 10 62 10 65
14 33 38 -16 12 -69 56 -118 97 l-90 75 -98 0 c-54 0 -100 -1 -101 -2z"/>
<path d="M3506 1233 c-31 -32 -55 -60 -54 -64 3 -7 102 -120 170 -193 36 -39
37 -39 42 -15 13 54 46 222 46 233 0 12 -123 96 -140 96 -4 0 -33 -26 -64 -57z"/>
<path d="M2186 1223 c-3 -10 -7 -22 -8 -28 -1 -5 -7 -29 -14 -51 l-12 -42 127
-41 c70 -22 130 -41 133 -41 3 0 4 19 2 43 -8 92 -15 162 -18 164 -1 1 -48 5
-103 8 -91 5 -102 4 -107 -12z"/>
<path d="M2428 1093 c2 -48 9 -93 15 -99 10 -9 130 -44 152 -44 7 0 -4 212
-11 219 -3 3 -40 7 -83 9 l-77 4 4 -89z"/>
<path d="M1646 1120 c-14 -22 -26 -44 -26 -50 0 -11 336 -178 375 -186 11 -3
45 -7 75 -10 30 -2 65 -7 78 -9 14 -4 22 -1 22 7 0 28 -43 197 -49 194 -4 -3
-43 -5 -86 -7 -44 -1 -83 -3 -87 -6 -4 -2 4 -36 18 -75 13 -40 23 -76 22 -80
-2 -5 -21 43 -43 106 -22 66 -46 118 -55 121 -8 4 -33 9 -55 12 -22 2 -58 9
-80 14 -69 15 -81 12 -109 -31z"/>
<path d="M3211 1138 c-25 -4 -48 -11 -52 -15 -3 -5 -30 -52 -59 -105 -37 -71
-48 -99 -38 -102 31 -11 100 -27 102 -24 82 116 119 175 131 209 8 23 15 43
15 45 0 5 -43 2 -99 -8z"/>
<path d="M3711 1020 c-7 -25 -20 -71 -30 -102 -10 -32 -16 -60 -13 -63 9 -8
122 -6 122 3 0 4 -15 53 -34 107 l-33 100 -12 -45z"/>
<path d="M2976 847 c-7 -12 -30 -48 -50 -79 l-36 -58 40 0 c22 -1 74 -1 115
-1 41 0 82 0 90 1 12 0 15 15 15 70 0 39 -3 70 -7 71 -5 0 -17 2 -28 4 -11 2
-44 5 -73 8 -46 5 -54 3 -66 -16z"/>
<path d="M3625 795 c-12 -9 -59 -146 -60 -170 0 -9 167 -16 191 -8 6 2 11 39
11 93 1 76 -2 90 -16 91 -73 5 -116 2 -126 -6z"/>
</g>
</svg>
